<?xml version="1.0" standalone="no"?>
<!DOCTYPE svg PUBLIC "-//W3C//DTD SVG 20010904//EN"
 "http://www.w3.org/TR/2001/REC-SVG-20010904/DTD/svg10.dtd">
<svg version="1.0" xmlns="http://www.w3.org/2000/svg"
 width="331.000000pt" height="68.000000pt" viewBox="0 0 331.000000 68.000000"
 preserveAspectRatio="xMidYMid meet">
<metadata>
Created by potrace 1.13, written by Peter Selinger 2001-2015
</metadata>
<g transform="translate(0.000000,68.000000) scale(0.100000,-0.100000)"
fill="#000000" stroke="none">
<path d="M185 571 c-39 -10 -88 -36 -103 -54 -9 -11 -8 -18 7 -31 17 -16 21
-16 57 6 52 31 144 32 194 2 19 -11 36 -27 38 -36 2 -13 -6 -11 -44 8 -172 87
-351 -96 -261 -267 49 -92 176 -131 262 -80 44 26 43 26 47 -2 2 -16 11 -23
31 -25 l27 -3 0 245 0 246 -30 0 c-23 0 -30 -4 -30 -20 0 -19 -2 -20 -29 -5
-36 18 -125 27 -166 16z m126 -156 c43 -23 69 -71 69 -127 0 -38 -6 -54 -30
-82 -59 -67 -144 -70 -204 -7 -37 38 -47 112 -22 160 33 64 121 90 187 56z"/>
<path d="M710 335 l0 -245 30 0 30 0 0 194 0 194 37 17 c65 31 115 31 179 0
52 -26 57 -26 72 -10 16 15 15 18 -17 45 -61 52 -160 61 -253 25 -13 -5 -18
-2 -18 9 0 11 -9 16 -30 16 l-30 0 0 -245z"/>
<path d="M1150 335 l0 -245 30 0 30 0 0 70 c0 39 2 70 4 70 3 0 20 -9 38 -19
112 -66 255 -3 287 126 24 94 -37 201 -134 233 -47 16 -117 7 -161 -21 l-34
-21 0 26 c0 22 -4 26 -30 26 l-30 0 0 -245z m276 160 c14 -9 35 -37 46 -62 18
-40 19 -51 8 -86 -25 -85 -113 -127 -187 -90 -102 50 -111 185 -15 242 43 25
106 24 148 -4z"/>
<path d="M1675 566 c-75 -34 -105 -116 -66 -179 23 -38 43 -48 141 -72 71 -17
110 -46 110 -82 0 -41 -59 -83 -117 -83 -32 0 -81 29 -89 52 -6 19 -48 25 -59
8 -10 -16 24 -70 57 -90 100 -60 244 -9 263 93 15 80 -38 134 -160 162 -78 18
-105 37 -105 72 0 41 42 73 95 73 38 0 52 -5 77 -30 37 -37 83 -42 73 -7 -12
39 -33 64 -68 81 -42 19 -111 20 -152 2z"/>
<path d="M1960 493 c0 -49 5 -105 11 -126 14 -51 78 -114 123 -123 l36 -6 0
-74 c0 -72 1 -74 25 -74 23 0 24 3 27 72 3 70 4 72 33 81 48 15 91 53 114 100
17 35 21 62 21 140 l0 97 -29 0 -29 0 -4 -104 c-3 -100 -4 -106 -33 -136 -68
-71 -176 -56 -221 32 -9 17 -14 60 -14 118 l0 90 -30 0 -30 0 0 -87z"/>
<path d="M2590 571 c-68 -21 -133 -75 -163 -136 -43 -89 -24 -189 51 -264 52
-52 111 -75 197 -76 47 0 50 2 53 26 3 25 1 26 -62 31 -72 6 -142 40 -169 81
-29 45 -40 99 -28 144 24 88 101 142 204 143 57 0 57 0 57 30 0 30 0 30 -57
29 -32 0 -69 -4 -83 -8z"/>
<path d="M2810 340 l0 -240 30 0 30 0 0 91 0 90 35 15 c19 7 64 14 100 14 36
0 81 -7 100 -14 l35 -15 0 -90 0 -91 30 0 30 0 0 240 0 240 -30 0 -30 0 0
-116 0 -116 -27 8 c-36 11 -191 12 -220 1 l-23 -8 0 115 0 116 -30 0 -30 0 0
-240z"/>
<path d="M550 280 l0 -190 30 0 30 0 0 190 0 190 -30 0 -30 0 0 -190z"/>
</g>
</svg>
