<?xml version="1.0" encoding="iso-8859-1"?><!-- Generator: Adobe Illustrator 16.0.0, SVG Export Plug-In . SVG Version: 6.00 Build 0) --><!DOCTYPE svg PUBLIC "-//W3C//DTD SVG 1.1//EN" "http://www.w3.org/Graphics/SVG/1.1/DTD/svg11.dtd"><svg version="1.1" id="Layer_1" xmlns="http://www.w3.org/2000/svg" xmlns:xlink="http://www.w3.org/1999/xlink" x="0px" y="0px" width="192.756px" height="192.756px" viewBox="0 0 192.756 192.756" style="enable-background:new 0 0 192.756 192.756;" xml:space="preserve"><g><polygon style="fill-rule:evenodd;clip-rule:evenodd;fill:#FFFFFF;" points="0,0 192.756,0 192.756,192.756 0,192.756 0,0	"/><path style="fill-rule:evenodd;clip-rule:evenodd;" d="M2.834,97.826c0,43.151,41.27,72.257,91.661,72.257	c50.102,0,95.426-30.264,95.426-74.719c0-42.138-41.27-72.691-92.096-72.691C45.407,22.673,2.834,56.702,2.834,97.826L2.834,97.826	z"/><path style="fill-rule:evenodd;clip-rule:evenodd;fill:#FFFFFF;" d="M98.256,30.491c46.049,0,83.842,26.645,83.842,64.728	c0,40.111-42.283,67.044-87.751,67.044c-44.745,0-83.842-25.63-83.842-64.872C10.505,60.466,49.892,30.491,98.256,30.491	L98.256,30.491z"/><path style="fill-rule:evenodd;clip-rule:evenodd;" d="M13.555,96.953c0,38.373,37.938,62.41,81.38,62.41	c25.052,0,43.876-6.516,58.356-17.521c17.086-13.032,26.064-30.264,26.064-46.771c0-36.78-36.781-61.687-80.801-61.687	C51.638,33.384,13.555,61.476,13.555,96.953L13.555,96.953z"/><path style="fill-rule:evenodd;clip-rule:evenodd;fill:#FFFFFF;" d="M33.827,66.818h3.91l0,0c2.317,0,2.462,0.725,2.462,4.055l0,0	v14.191l0,0c0,2.172,0.145,3.186,1.303,3.186c4.489,0,7.675-6.082,8.543-10.715c1.014-5.213,0.869-9.702,1.882-14.335	C54.389,52.628,61.05,46.112,72.2,46.112c8.253,0,14.48,4.344,17.521,12.019c1.158,2.896,1.883,6.661,2.172,11.15	c0,9.123,0,9.123-2.751,9.123l0,0h-3.476l0,0c-1.737,0-2.027-0.579-2.027-2.317c0-13.177,0-25.051-12.453-25.051	c-9.123,0-10.716,5.647-12.164,20.128c-1.448,14.335-2.172,14.77-12.888,20.852c3.33,2.027,11.005,6.661,11.005,22.155	c0,1.158-0.434,1.303-1.882,1.303l0,0h-3.186l0,0c-3.041,0-3.041-0.145-4.344-10.281c-0.435-3.909-3.041-10.136-6.371-10.136	c-1.014,0-1.159,1.013-1.159,3.331l0,0l0.29,15.494l0,0c0,1.158-0.145,1.593-1.448,1.593l0,0h-4.778l0,0	c-1.882,0-2.606-0.145-2.606-2.316l0,0l-0.29-44.455l0,0C31.365,67.543,32.089,66.818,33.827,66.818L33.827,66.818z"/><path style="fill-rule:evenodd;clip-rule:evenodd;fill:#FFFFFF;" d="M91.15,121.415c2.317,0,2.317,0,2.606,5.792	c0.145,3.62,0.435,5.213,1.158,7.385c1.738,4.924,5.792,8.834,11.15,8.834c9.268,0,11.295-8.399,11.295-22.011	c0-3.186-0.145-4.054-0.725-7.24c-2.461,1.159-3.91,1.593-5.938,1.593c-5.646,0-9.846-5.068-9.846-14.336	c0-10.86,4.779-18.679,11.006-18.679c1.592,0,2.895,0.435,5.646,1.738c1.158-0.869,1.594-0.869,3.33-0.869l0,0h2.896l0,0	c1.738,0,2.027,0.145,2.027,1.013c0,2.172-0.58,0.435-0.58,9.412l0,0v24.327l0,0c0,17.231-4.922,30.119-20.852,30.119	c-11.439,0-19.547-10.426-19.547-24.472c0-2.316,0.435-2.606,2.172-2.606l0,0H91.15L91.15,121.415z"/><path style="fill-rule:evenodd;clip-rule:evenodd;" d="M114.047,89.133c-2.752,0-4.779,3.475-4.779,11.15	c0,5.067,1.738,8.398,4.635,8.398c3.186,0,3.33-1.737,3.33-13.901C117.232,91.739,116.943,89.133,114.047,89.133L114.047,89.133z"	/><path style="fill-rule:evenodd;clip-rule:evenodd;fill:#FFFFFF;" d="M59.896,84.355c0-0.435,0.29-0.724,2.606-0.724l0,0h2.317l0,0	c1.448,0,1.593,0,3.62,1.882c1.738-1.014,3.765-1.882,5.647-1.882c1.014,0,1.158,0.869,1.158,2.751l0,0v2.896l0.869,0.435l0,0	c3.33-4.489,6.082-7.095,11.294-7.095c8.109,0,12.453,6.661,12.453,16.218c0,10.426-4.922,17.666-13.321,17.666	c-7.53,0-12.453-5.938-12.453-15.35c0-2.606,0.145-4.924,1.303-10.136c-6.372,0.868-7.385,1.448-7.385,11.294l0,0v9.847l0,0	c0,2.752-0.145,3.331-2.896,3.331l0,0h-2.606l0,0c-2.172,0-2.172-0.29-2.172-3.765l0,0L59.896,84.355L59.896,84.355z"/><path style="fill-rule:evenodd;clip-rule:evenodd;" d="M86.953,89.718c-2.751,0-4.344,3.765-4.344,11.874	c0,4.488,1.158,7.819,4.344,7.819c2.896,0,4.634-3.765,4.634-10.716C91.586,93.483,90.138,89.718,86.953,89.718L86.953,89.718z"/><path style="fill-rule:evenodd;clip-rule:evenodd;fill:#FFFFFF;" d="M138.07,99.854c-1.738,0-2.316,0.724-2.316,2.316	c0,3.766,1.736,6.951,4.344,6.951c4.633,0,2.605-6.806,6.227-6.806l0,0h4.344l0,0c1.303,0,1.738,0.289,1.738,1.593	c0,6.95-6.662,12.163-12.164,12.163c-8.834,0-13.033-7.529-13.033-16.797c0-8.833,5.068-16.942,13.178-16.942	c7.82,0,12.02,6.371,12.02,15.494c0,1.593-0.436,2.027-3.041,2.027l0,0H138.07L138.07,99.854z"/><path style="fill-rule:evenodd;clip-rule:evenodd;" d="M142.576,94.351c0.869,0,1.592-0.724,1.592-1.593	c0-1.883-2.316-3.765-3.764-3.765c-0.725,0-3.766,1.448-3.766,3.909c0,0.869,0.869,1.448,1.883,1.448l0,0H142.576L142.576,94.351z"	/><path style="fill-rule:evenodd;clip-rule:evenodd;fill:#FFFFFF;" d="M156.318,83.616h2.752l0,0c1.447,0,2.025,0.145,3.33,2.172	c4.055-2.172,4.488-2.462,5.646-2.462c1.449,0,1.883,0.724,1.883,1.883l0,0v3.041l0,0c0,4.779-3.91,0.724-6.082,4.779	c-0.578,1.158-1.447,3.476-1.447,8.688l0,0v11.294l0,0c0,1.738-0.291,2.462-1.883,2.462l0,0h-2.752l0,0	c-1.447,0-2.895-0.145-2.895-1.448l0,0l-0.291-29.395l0,0C154.58,83.905,155.16,83.616,156.318,83.616L156.318,83.616z"/><path style="fill-rule:evenodd;clip-rule:evenodd;fill:#FFFFFF;" d="M132.531,119.457c-0.467-0.463-1.029-0.694-1.689-0.694	c-0.656,0-1.215,0.231-1.68,0.694c-0.465,0.466-0.697,1.026-0.697,1.683c0,0.662,0.23,1.227,0.691,1.691	c0.463,0.468,1.025,0.702,1.686,0.702s1.223-0.234,1.689-0.702c0.465-0.467,0.697-1.031,0.697-1.691	C133.229,120.481,132.996,119.921,132.531,119.457L132.531,119.457L132.531,119.457L132.531,119.457z"/><path style="fill-rule:evenodd;clip-rule:evenodd;" d="M132.293,119.688c0.398,0.401,0.598,0.885,0.598,1.452	c0,0.571-0.199,1.059-0.598,1.461c-0.398,0.403-0.881,0.604-1.451,0.604c-0.568,0-1.053-0.201-1.451-0.604	c-0.396-0.402-0.594-0.89-0.594-1.461c0-0.567,0.199-1.051,0.596-1.452c0.402-0.402,0.885-0.604,1.449-0.604	C131.408,119.084,131.893,119.285,132.293,119.688L132.293,119.688L132.293,119.688L132.293,119.688z"/><path style="fill-rule:evenodd;clip-rule:evenodd;fill:#FFFFFF;" d="M129.881,122.441h0.461v-1.032h0.363l0,0	c0.244,0,0.416,0.028,0.514,0.085c0.164,0.097,0.246,0.297,0.246,0.601l0,0v0.207l0.01,0.085l0,0	c0.002,0.011,0.004,0.021,0.008,0.029c0.002,0.009,0.004,0.018,0.006,0.025l0,0h0.432l-0.016-0.032l0,0	c-0.012-0.021-0.02-0.067-0.023-0.136c-0.004-0.069-0.006-0.135-0.006-0.195l0,0v-0.191l0,0c0-0.132-0.049-0.268-0.143-0.406	c-0.096-0.139-0.246-0.224-0.453-0.256c0.164-0.026,0.289-0.068,0.381-0.127c0.17-0.111,0.256-0.283,0.256-0.517	c0-0.329-0.135-0.55-0.406-0.662c-0.15-0.062-0.389-0.095-0.713-0.095l0,0h-0.916V122.441L129.881,122.441L129.881,122.441z"/><path style="fill-rule:evenodd;clip-rule:evenodd;" d="M131.195,121.029c-0.098,0.039-0.242,0.059-0.438,0.059l0,0h-0.416v-0.948	h0.393l0,0c0.256,0,0.441,0.032,0.557,0.097c0.115,0.065,0.174,0.193,0.174,0.384C131.465,120.821,131.375,120.958,131.195,121.029	L131.195,121.029L131.195,121.029L131.195,121.029z"/></g></svg>